<?xml version="1.0" encoding="UTF-8" standalone="no"?>
<!DOCTYPE svg PUBLIC "-//W3C//DTD SVG 1.1//EN"
 "http://www.w3.org/Graphics/SVG/1.1/DTD/svg11.dtd">
<!-- Generated by graphviz version 10.0.1 (20240210.2158)
 -->
<!-- Title: FST Pages: 1 -->
<svg width="286pt" height="77pt"
 viewBox="0.00 0.00 286.22 77.24" xmlns="http://www.w3.org/2000/svg" xmlns:xlink="http://www.w3.org/1999/xlink">
<g id="graph0" class="graph" transform="scale(1 1) rotate(0) translate(4 73.24)">
<title>FST</title>
<polygon fill="white" stroke="none" points="-4,4 -4,-73.24 282.22,-73.24 282.22,4 -4,4"/>
<!-- 0 -->
<g id="node1" class="node">
<title>0</title>
<ellipse fill="none" stroke="black" stroke-width="2" cx="18" cy="-34.62" rx="18" ry="18"/>
<text text-anchor="middle" x="18" y="-30.42" font-family="Times,serif" font-size="14.00">0</text>
</g>
<!-- 1 -->
<g id="node2" class="node">
<title>1</title>
<ellipse fill="none" stroke="black" cx="123.28" cy="-34.62" rx="18" ry="18"/>
<text text-anchor="middle" x="123.28" y="-30.42" font-family="Times,serif" font-size="14.00">1</text>
</g>
<!-- 0&#45;&gt;1 -->
<g id="edge1" class="edge">
<title>0&#45;&gt;1</title>
<path fill="none" stroke="black" d="M36.05,-34.62C51.66,-34.62 75.06,-34.62 93.55,-34.62"/>
<polygon fill="black" stroke="black" points="93.34,-38.12 103.34,-34.62 93.34,-31.12 93.34,-38.12"/>
<text text-anchor="middle" x="70.64" y="-38.82" font-family="Times,serif" font-size="14.00">a:x/0.5</text>
</g>
<!-- 0&#45;&gt;1 -->
<g id="edge2" class="edge">
<title>0&#45;&gt;1</title>
<path fill="none" stroke="black" d="M32.46,-23.4C37.87,-19.58 44.39,-15.78 51,-13.82 67.74,-8.86 73.54,-8.86 90.28,-13.82 93.27,-14.71 96.25,-15.97 99.11,-17.45"/>
<polygon fill="black" stroke="black" points="97.17,-20.36 107.53,-22.61 100.83,-14.4 97.17,-20.36"/>
<text text-anchor="middle" x="70.64" y="-17.82" font-family="Times,serif" font-size="14.00">b:y/1.5</text>
</g>
<!-- 2 -->
<g id="node3" class="node">
<title>2</title>
<ellipse fill="none" stroke="black" cx="243.61" cy="-34.62" rx="30.62" ry="30.62"/>
<ellipse fill="none" stroke="black" cx="243.61" cy="-34.62" rx="34.62" ry="34.62"/>
<text text-anchor="middle" x="243.61" y="-30.42" font-family="Times,serif" font-size="14.00">2/3.5</text>
</g>
<!-- 1&#45;&gt;2 -->
<g id="edge3" class="edge">
<title>1&#45;&gt;2</title>
<path fill="none" stroke="black" d="M141.74,-34.62C156.39,-34.62 178,-34.62 197.45,-34.62"/>
<polygon fill="black" stroke="black" points="197.39,-38.12 207.39,-34.62 197.39,-31.12 197.39,-38.12"/>
<text text-anchor="middle" x="175.13" y="-38.82" font-family="Times,serif" font-size="14.00">c:z/2.5</text>
</g>
</g>
</svg>
